<svg xmlns="http://www.w3.org/2000/svg" viewBox="0 0 320 320" width="320" height="320">
  <defs>
    <filter id="neonGlow" x="-20%" y="-20%" width="140%" height="140%">
      <feGaussianBlur stdDeviation="1.5" result="blur"/>
      <feComposite in="SourceGraphic" in2="blur" operator="over"/>
    </filter>
  </defs>
  <style>
    .bg { fill: #0d0221; }
    .p { fill: #ff007f; filter: url(#neonGlow); }
    .w { fill: #ffffff; }
    .c { fill: #00f3ff; filter: url(#neonGlow); }
    .y { fill: #fcee0a; filter: url(#neonGlow); }
    .d { fill: #1a1a2e; }
    .g { fill: #00ff41; filter: url(#neonGlow); }
    .b { fill: #000000; }
  </style>
  <rect class="bg" width="320" height="320" />
  <rect class="b" x="190" y="10" width="10" height="10" />
  <rect class="b" x="200" y="10" width="10" height="10" />
  <rect class="b" x="210" y="10" width="10" height="10" />
  <rect class="b" x="180" y="20" width="10" height="10" />
  <rect class="p" x="190" y="20" width="10" height="10" />
  <rect class="p" x="200" y="20" width="10" height="10" />
  <rect class="p" x="210" y="20" width="10" height="10" />
  <rect class="b" x="220" y="20" width="10" height="10" />
  <rect class="b" x="180" y="30" width="10" height="10" />
  <rect class="p" x="190" y="30" width="10" height="10" />
  <rect class="w" x="200" y="30" width="10" height="10" />
  <rect class="p" x="210" y="30" width="10" height="10" />
  <rect class="b" x="220" y="30" width="10" height="10" />
  <rect class="b" x="180" y="40" width="10" height="10" />
  <rect class="p" x="190" y="40" width="10" height="10" />
  <rect class="w" x="200" y="40" width="10" height="10" />
  <rect class="p" x="210" y="40" width="10" height="10" />
  <rect class="b" x="220" y="40" width="10" height="10" />
  <rect class="b" x="170" y="50" width="10" height="10" />
  <rect class="p" x="180" y="50" width="10" height="10" />
  <rect class="p" x="190" y="50" width="10" height="10" />
  <rect class="p" x="200" y="50" width="10" height="10" />
  <rect class="b" x="210" y="50" width="10" height="10" />
  <rect class="b" x="170" y="60" width="10" height="10" />
  <rect class="p" x="180" y="60" width="10" height="10" />
  <rect class="w" x="190" y="60" width="10" height="10" />
  <rect class="p" x="200" y="60" width="10" height="10" />
  <rect class="b" x="210" y="60" width="10" height="10" />
  <rect class="b" x="160" y="70" width="10" height="10" />
  <rect class="p" x="170" y="70" width="10" height="10" />
  <rect class="p" x="180" y="70" width="10" height="10" />
  <rect class="p" x="190" y="70" width="10" height="10" />
  <rect class="b" x="200" y="70" width="10" height="10" />
  <rect class="b" x="240" y="70" width="10" height="10" />
  <rect class="b" x="250" y="70" width="10" height="10" />
  <rect class="b" x="260" y="70" width="10" height="10" />
  <rect class="b" x="270" y="70" width="10" height="10" />
  <rect class="b" x="150" y="80" width="10" height="10" />
  <rect class="p" x="160" y="80" width="10" height="10" />
  <rect class="w" x="170" y="80" width="10" height="10" />
  <rect class="p" x="180" y="80" width="10" height="10" />
  <rect class="b" x="190" y="80" width="10" height="10" />
  <rect class="b" x="220" y="80" width="10" height="10" />
  <rect class="p" x="230" y="80" width="10" height="10" />
  <rect class="p" x="240" y="80" width="10" height="10" />
  <rect class="p" x="250" y="80" width="10" height="10" />
  <rect class="p" x="260" y="80" width="10" height="10" />
  <rect class="b" x="270" y="80" width="10" height="10" />
  <rect class="b" x="80" y="90" width="10" height="10" />
  <rect class="b" x="90" y="90" width="10" height="10" />
  <rect class="b" x="100" y="90" width="10" height="10" />
  <rect class="b" x="110" y="90" width="10" height="10" />
  <rect class="b" x="120" y="90" width="10" height="10" />
  <rect class="b" x="130" y="90" width="10" height="10" />
  <rect class="b" x="160" y="90" width="10" height="10" />
  <rect class="p" x="170" y="90" width="10" height="10" />
  <rect class="p" x="180" y="90" width="10" height="10" />
  <rect class="p" x="190" y="90" width="10" height="10" />
  <rect class="b" x="200" y="90" width="10" height="10" />
  <rect class="b" x="230" y="90" width="10" height="10" />
  <rect class="p" x="240" y="90" width="10" height="10" />
  <rect class="w" x="250" y="90" width="10" height="10" />
  <rect class="w" x="260" y="90" width="10" height="10" />
  <rect class="w" x="270" y="90" width="10" height="10" />
  <rect class="p" x="280" y="90" width="10" height="10" />
  <rect class="b" x="290" y="90" width="10" height="10" />
  <rect class="b" x="60" y="100" width="10" height="10" />
  <rect class="b" x="70" y="100" width="10" height="10" />
  <rect class="w" x="80" y="100" width="10" height="10" />
  <rect class="w" x="90" y="100" width="10" height="10" />
  <rect class="w" x="100" y="100" width="10" height="10" />
  <rect class="w" x="110" y="100" width="10" height="10" />
  <rect class="w" x="120" y="100" width="10" height="10" />
  <rect class="w" x="130" y="100" width="10" height="10" />
  <rect class="b" x="140" y="100" width="10" height="10" />
  <rect class="b" x="150" y="100" width="10" height="10" />
  <rect class="b" x="170" y="100" width="10" height="10" />
  <rect class="b" x="180" y="100" width="10" height="10" />
  <rect class="b" x="190" y="100" width="10" height="10" />
  <rect class="b" x="210" y="100" width="10" height="10" />
  <rect class="p" x="220" y="100" width="10" height="10" />
  <rect class="w" x="230" y="100" width="10" height="10" />
  <rect class="p" x="240" y="100" width="10" height="10" />
  <rect class="p" x="250" y="100" width="10" height="10" />
  <rect class="w" x="260" y="100" width="10" height="10" />
  <rect class="p" x="270" y="100" width="10" height="10" />
  <rect class="b" x="280" y="100" width="10" height="10" />
  <rect class="b" x="50" y="110" width="10" height="10" />
  <rect class="w" x="60" y="110" width="10" height="10" />
  <rect class="w" x="70" y="110" width="10" height="10" />
  <rect class="w" x="80" y="110" width="10" height="10" />
  <rect class="w" x="90" y="110" width="10" height="10" />
  <rect class="w" x="100" y="110" width="10" height="10" />
  <rect class="w" x="110" y="110" width="10" height="10" />
  <rect class="w" x="120" y="110" width="10" height="10" />
  <rect class="w" x="130" y="110" width="10" height="10" />
  <rect class="w" x="140" y="110" width="10" height="10" />
  <rect class="w" x="150" y="110" width="10" height="10" />
  <rect class="b" x="160" y="110" width="10" height="10" />
  <rect class="b" x="170" y="110" width="10" height="10" />
  <rect class="b" x="180" y="110" width="10" height="10" />
  <rect class="p" x="190" y="110" width="10" height="10" />
  <rect class="w" x="200" y="110" width="10" height="10" />
  <rect class="b" x="210" y="110" width="10" height="10" />
  <rect class="b" x="220" y="110" width="10" height="10" />
  <rect class="p" x="230" y="110" width="10" height="10" />
  <rect class="w" x="240" y="110" width="10" height="10" />
  <rect class="p" x="250" y="110" width="10" height="10" />
  <rect class="b" x="260" y="110" width="10" height="10" />
  <rect class="w" x="270" y="110" width="10" height="10" />
  <rect class="p" x="280" y="110" width="10" height="10" />
  <rect class="b" x="290" y="110" width="10" height="10" />
  <rect class="b" x="40" y="120" width="10" height="10" />
  <rect class="w" x="50" y="120" width="10" height="10" />
  <rect class="w" x="60" y="120" width="10" height="10" />
  <rect class="w" x="70" y="120" width="10" height="10" />
  <rect class="w" x="80" y="120" width="10" height="10" />
  <rect class="w" x="90" y="120" width="10" height="10" />
  <rect class="w" x="100" y="120" width="10" height="10" />
  <rect class="w" x="110" y="120" width="10" height="10" />
  <rect class="w" x="120" y="120" width="10" height="10" />
  <rect class="w" x="130" y="120" width="10" height="10" />
  <rect class="w" x="140" y="120" width="10" height="10" />
  <rect class="w" x="150" y="120" width="10" height="10" />
  <rect class="w" x="160" y="120" width="10" height="10" />
  <rect class="w" x="170" y="120" width="10" height="10" />
  <rect class="p" x="180" y="120" width="10" height="10" />
  <rect class="p" x="190" y="120" width="10" height="10" />
  <rect class="w" x="200" y="120" width="10" height="10" />
  <rect class="p" x="210" y="120" width="10" height="10" />
  <rect class="w" x="220" y="120" width="10" height="10" />
  <rect class="p" x="230" y="120" width="10" height="10" />
  <rect class="b" x="240" y="120" width="10" height="10" />
  <rect class="b" x="250" y="120" width="10" height="10" />
  <rect class="b" x="260" y="120" width="10" height="10" />
  <rect class="p" x="270" y="120" width="10" height="10" />
  <rect class="b" x="280" y="120" width="10" height="10" />
  <rect class="b" x="30" y="130" width="10" height="10" />
  <rect class="w" x="40" y="130" width="10" height="10" />
  <rect class="w" x="50" y="130" width="10" height="10" />
  <rect class="w" x="60" y="130" width="10" height="10" />
  <rect class="w" x="70" y="130" width="10" height="10" />
  <rect class="w" x="80" y="130" width="10" height="10" />
  <rect class="b" x="90" y="130" width="10" height="10" />
  <rect class="b" x="100" y="130" width="10" height="10" />
  <rect class="w" x="110" y="130" width="10" height="10" />
  <rect class="w" x="120" y="130" width="10" height="10" />
  <rect class="w" x="130" y="130" width="10" height="10" />
  <rect class="w" x="140" y="130" width="10" height="10" />
  <rect class="w" x="150" y="130" width="10" height="10" />
  <rect class="w" x="160" y="130" width="10" height="10" />
  <rect class="w" x="170" y="130" width="10" height="10" />
  <rect class="w" x="180" y="130" width="10" height="10" />
  <rect class="w" x="190" y="130" width="10" height="10" />
  <rect class="p" x="200" y="130" width="10" height="10" />
  <rect class="p" x="210" y="130" width="10" height="10" />
  <rect class="p" x="220" y="130" width="10" height="10" />
  <rect class="b" x="230" y="130" width="10" height="10" />
  <rect class="b" x="260" y="130" width="10" height="10" />
  <rect class="p" x="270" y="130" width="10" height="10" />
  <rect class="b" x="280" y="130" width="10" height="10" />
  <rect class="b" x="30" y="140" width="10" height="10" />
  <rect class="w" x="40" y="140" width="10" height="10" />
  <rect class="w" x="50" y="140" width="10" height="10" />
  <rect class="w" x="60" y="140" width="10" height="10" />
  <rect class="w" x="70" y="140" width="10" height="10" />
  <rect class="b" x="80" y="140" width="10" height="10" />
  <rect class="c" x="90" y="140" width="10" height="10" />
  <rect class="c" x="100" y="140" width="10" height="10" />
  <rect class="b" x="110" y="140" width="10" height="10" />
  <rect class="w" x="120" y="140" width="10" height="10" />
  <rect class="w" x="130" y="140" width="10" height="10" />
  <rect class="w" x="140" y="140" width="10" height="10" />
  <rect class="w" x="150" y="140" width="10" height="10" />
  <rect class="w" x="160" y="140" width="10" height="10" />
  <rect class="w" x="170" y="140" width="10" height="10" />
  <rect class="w" x="180" y="140" width="10" height="10" />
  <rect class="w" x="190" y="140" width="10" height="10" />
  <rect class="w" x="200" y="140" width="10" height="10" />
  <rect class="p" x="210" y="140" width="10" height="10" />
  <rect class="p" x="220" y="140" width="10" height="10" />
  <rect class="b" x="230" y="140" width="10" height="10" />
  <rect class="b" x="260" y="140" width="10" height="10" />
  <rect class="p" x="270" y="140" width="10" height="10" />
  <rect class="b" x="280" y="140" width="10" height="10" />
  <rect class="b" x="30" y="150" width="10" height="10" />
  <rect class="g" x="40" y="150" width="10" height="10" />
  <rect class="w" x="50" y="150" width="10" height="10" />
  <rect class="w" x="60" y="150" width="10" height="10" />
  <rect class="w" x="70" y="150" width="10" height="10" />
  <rect class="w" x="80" y="150" width="10" height="10" />
  <rect class="b" x="90" y="150" width="10" height="10" />
  <rect class="b" x="100" y="150" width="10" height="10" />
  <rect class="w" x="110" y="150" width="10" height="10" />
  <rect class="w" x="120" y="150" width="10" height="10" />
  <rect class="w" x="130" y="150" width="10" height="10" />
  <rect class="w" x="140" y="150" width="10" height="10" />
  <rect class="b" x="150" y="150" width="10" height="10" />
  <rect class="d" x="160" y="150" width="10" height="10" />
  <rect class="w" x="170" y="150" width="10" height="10" />
  <rect class="w" x="180" y="150" width="10" height="10" />
  <rect class="w" x="190" y="150" width="10" height="10" />
  <rect class="w" x="200" y="150" width="10" height="10" />
  <rect class="p" x="210" y="150" width="10" height="10" />
  <rect class="b" x="220" y="150" width="10" height="10" />
  <rect class="b" x="260" y="150" width="10" height="10" />
  <rect class="p" x="270" y="150" width="10" height="10" />
  <rect class="b" x="280" y="150" width="10" height="10" />
  <rect class="b" x="30" y="160" width="10" height="10" />
  <rect class="g" x="40" y="160" width="10" height="10" />
  <rect class="g" x="50" y="160" width="10" height="10" />
  <rect class="w" x="60" y="160" width="10" height="10" />
  <rect class="w" x="70" y="160" width="10" height="10" />
  <rect class="w" x="80" y="160" width="10" height="10" />
  <rect class="w" x="90" y="160" width="10" height="10" />
  <rect class="w" x="100" y="160" width="10" height="10" />
  <rect class="w" x="110" y="160" width="10" height="10" />
  <rect class="w" x="120" y="160" width="10" height="10" />
  <rect class="w" x="130" y="160" width="10" height="10" />
  <rect class="b" x="140" y="160" width="10" height="10" />
  <rect class="d" x="150" y="160" width="10" height="10" />
  <rect class="d" x="160" y="160" width="10" height="10" />
  <rect class="w" x="170" y="160" width="10" height="10" />
  <rect class="w" x="180" y="160" width="10" height="10" />
  <rect class="w" x="190" y="160" width="10" height="10" />
  <rect class="w" x="200" y="160" width="10" height="10" />
  <rect class="p" x="210" y="160" width="10" height="10" />
  <rect class="b" x="220" y="160" width="10" height="10" />
  <rect class="b" x="260" y="160" width="10" height="10" />
  <rect class="p" x="270" y="160" width="10" height="10" />
  <rect class="b" x="280" y="160" width="10" height="10" />
  <rect class="b" x="40" y="170" width="10" height="10" />
  <rect class="g" x="50" y="170" width="10" height="10" />
  <rect class="g" x="60" y="170" width="10" height="10" />
  <rect class="w" x="70" y="170" width="10" height="10" />
  <rect class="w" x="80" y="170" width="10" height="10" />
  <rect class="w" x="90" y="170" width="10" height="10" />
  <rect class="w" x="100" y="170" width="10" height="10" />
  <rect class="w" x="110" y="170" width="10" height="10" />
  <rect class="w" x="120" y="170" width="10" height="10" />
  <rect class="b" x="130" y="170" width="10" height="10" />
  <rect class="d" x="140" y="170" width="10" height="10" />
  <rect class="d" x="150" y="170" width="10" height="10" />
  <rect class="d" x="160" y="170" width="10" height="10" />
  <rect class="w" x="170" y="170" width="10" height="10" />
  <rect class="w" x="180" y="170" width="10" height="10" />
  <rect class="w" x="190" y="170" width="10" height="10" />
  <rect class="p" x="200" y="170" width="10" height="10" />
  <rect class="b" x="210" y="170" width="10" height="10" />
  <rect class="b" x="220" y="170" width="10" height="10" />
  <rect class="b" x="230" y="170" width="10" height="10" />
  <rect class="b" x="260" y="170" width="10" height="10" />
  <rect class="p" x="270" y="170" width="10" height="10" />
  <rect class="b" x="280" y="170" width="10" height="10" />
  <rect class="b" x="50" y="180" width="10" height="10" />
  <rect class="b" x="60" y="180" width="10" height="10" />
  <rect class="g" x="70" y="180" width="10" height="10" />
  <rect class="w" x="80" y="180" width="10" height="10" />
  <rect class="w" x="90" y="180" width="10" height="10" />
  <rect class="w" x="100" y="180" width="10" height="10" />
  <rect class="w" x="110" y="180" width="10" height="10" />
  <rect class="w" x="120" y="180" width="10" height="10" />
  <rect class="b" x="130" y="180" width="10" height="10" />
  <rect class="d" x="140" y="180" width="10" height="10" />
  <rect class="d" x="150" y="180" width="10" height="10" />
  <rect class="d" x="160" y="180" width="10" height="10" />
  <rect class="w" x="170" y="180" width="10" height="10" />
  <rect class="w" x="180" y="180" width="10" height="10" />
  <rect class="p" x="190" y="180" width="10" height="10" />
  <rect class="b" x="200" y="180" width="10" height="10" />
  <rect class="y" x="210" y="180" width="10" height="10" />
  <rect class="y" x="220" y="180" width="10" height="10" />
  <rect class="y" x="230" y="180" width="10" height="10" />
  <rect class="b" x="240" y="180" width="10" height="10" />
  <rect class="b" x="260" y="180" width="10" height="10" />
  <rect class="p" x="270" y="180" width="10" height="10" />
  <rect class="b" x="280" y="180" width="10" height="10" />
  <rect class="b" x="70" y="190" width="10" height="10" />
  <rect class="w" x="80" y="190" width="10" height="10" />
  <rect class="w" x="90" y="190" width="10" height="10" />
  <rect class="w" x="100" y="190" width="10" height="10" />
  <rect class="w" x="110" y="190" width="10" height="10" />
  <rect class="b" x="120" y="190" width="10" height="10" />
  <rect class="d" x="130" y="190" width="10" height="10" />
  <rect class="d" x="140" y="190" width="10" height="10" />
  <rect class="d" x="150" y="190" width="10" height="10" />
  <rect class="d" x="160" y="190" width="10" height="10" />
  <rect class="w" x="170" y="190" width="10" height="10" />
  <rect class="p" x="180" y="190" width="10" height="10" />
  <rect class="b" x="190" y="190" width="10" height="10" />
  <rect class="y" x="200" y="190" width="10" height="10" />
  <rect class="c" x="210" y="190" width="10" height="10" />
  <rect class="y" x="220" y="190" width="10" height="10" />
  <rect class="c" x="230" y="190" width="10" height="10" />
  <rect class="y" x="240" y="190" width="10" height="10" />
  <rect class="b" x="250" y="190" width="10" height="10" />
  <rect class="b" x="260" y="190" width="10" height="10" />
  <rect class="p" x="270" y="190" width="10" height="10" />
  <rect class="b" x="280" y="190" width="10" height="10" />
  <rect class="b" x="60" y="200" width="10" height="10" />
  <rect class="d" x="70" y="200" width="10" height="10" />
  <rect class="d" x="80" y="200" width="10" height="10" />
  <rect class="w" x="90" y="200" width="10" height="10" />
  <rect class="w" x="100" y="200" width="10" height="10" />
  <rect class="w" x="110" y="200" width="10" height="10" />
  <rect class="b" x="120" y="200" width="10" height="10" />
  <rect class="d" x="130" y="200" width="10" height="10" />
  <rect class="d" x="140" y="200" width="10" height="10" />
  <rect class="d" x="150" y="200" width="10" height="10" />
  <rect class="d" x="160" y="200" width="10" height="10" />
  <rect class="w" x="170" y="200" width="10" height="10" />
  <rect class="b" x="180" y="200" width="10" height="10" />
  <rect class="y" x="190" y="200" width="10" height="10" />
  <rect class="y" x="200" y="200" width="10" height="10" />
  <rect class="y" x="210" y="200" width="10" height="10" />
  <rect class="y" x="220" y="200" width="10" height="10" />
  <rect class="y" x="230" y="200" width="10" height="10" />
  <rect class="y" x="240" y="200" width="10" height="10" />
  <rect class="y" x="250" y="200" width="10" height="10" />
  <rect class="b" x="260" y="200" width="10" height="10" />
  <rect class="p" x="270" y="200" width="10" height="10" />
  <rect class="b" x="280" y="200" width="10" height="10" />
  <rect class="b" x="50" y="210" width="10" height="10" />
  <rect class="d" x="60" y="210" width="10" height="10" />
  <rect class="d" x="70" y="210" width="10" height="10" />
  <rect class="d" x="80" y="210" width="10" height="10" />
  <rect class="d" x="90" y="210" width="10" height="10" />
  <rect class="w" x="100" y="210" width="10" height="10" />
  <rect class="b" x="110" y="210" width="10" height="10" />
  <rect class="d" x="120" y="210" width="10" height="10" />
  <rect class="d" x="130" y="210" width="10" height="10" />
  <rect class="d" x="140" y="210" width="10" height="10" />
  <rect class="d" x="150" y="210" width="10" height="10" />
  <rect class="w" x="160" y="210" width="10" height="10" />
  <rect class="b" x="170" y="210" width="10" height="10" />
  <rect class="y" x="180" y="210" width="10" height="10" />
  <rect class="y" x="190" y="210" width="10" height="10" />
  <rect class="y" x="200" y="210" width="10" height="10" />
  <rect class="y" x="210" y="210" width="10" height="10" />
  <rect class="y" x="220" y="210" width="10" height="10" />
  <rect class="y" x="230" y="210" width="10" height="10" />
  <rect class="y" x="240" y="210" width="10" height="10" />
  <rect class="y" x="250" y="210" width="10" height="10" />
  <rect class="p" x="260" y="210" width="10" height="10" />
  <rect class="b" x="270" y="210" width="10" height="10" />
  <rect class="b" x="40" y="220" width="10" height="10" />
  <rect class="d" x="50" y="220" width="10" height="10" />
  <rect class="d" x="60" y="220" width="10" height="10" />
  <rect class="d" x="70" y="220" width="10" height="10" />
  <rect class="d" x="80" y="220" width="10" height="10" />
  <rect class="d" x="90" y="220" width="10" height="10" />
  <rect class="w" x="100" y="220" width="10" height="10" />
  <rect class="b" x="110" y="220" width="10" height="10" />
  <rect class="d" x="120" y="220" width="10" height="10" />
  <rect class="d" x="130" y="220" width="10" height="10" />
  <rect class="d" x="140" y="220" width="10" height="10" />
  <rect class="w" x="150" y="220" width="10" height="10" />
  <rect class="b" x="160" y="220" width="10" height="10" />
  <rect class="g" x="170" y="220" width="10" height="10" />
  <rect class="y" x="180" y="220" width="10" height="10" />
  <rect class="y" x="190" y="220" width="10" height="10" />
  <rect class="y" x="200" y="220" width="10" height="10" />
  <rect class="y" x="210" y="220" width="10" height="10" />
  <rect class="y" x="220" y="220" width="10" height="10" />
  <rect class="y" x="230" y="220" width="10" height="10" />
  <rect class="y" x="240" y="220" width="10" height="10" />
  <rect class="g" x="250" y="220" width="10" height="10" />
  <rect class="p" x="260" y="220" width="10" height="10" />
  <rect class="b" x="270" y="220" width="10" height="10" />
  <rect class="b" x="30" y="230" width="10" height="10" />
  <rect class="d" x="40" y="230" width="10" height="10" />
  <rect class="d" x="50" y="230" width="10" height="10" />
  <rect class="d" x="60" y="230" width="10" height="10" />
  <rect class="d" x="70" y="230" width="10" height="10" />
  <rect class="d" x="80" y="230" width="10" height="10" />
  <rect class="d" x="90" y="230" width="10" height="10" />
  <rect class="d" x="100" y="230" width="10" height="10" />
  <rect class="w" x="110" y="230" width="10" height="10" />
  <rect class="b" x="120" y="230" width="10" height="10" />
  <rect class="b" x="130" y="230" width="10" height="10" />
  <rect class="b" x="140" y="230" width="10" height="10" />
  <rect class="w" x="150" y="230" width="10" height="10" />
  <rect class="b" x="160" y="230" width="10" height="10" />
  <rect class="g" x="170" y="230" width="10" height="10" />
  <rect class="g" x="180" y="230" width="10" height="10" />
  <rect class="y" x="190" y="230" width="10" height="10" />
  <rect class="y" x="200" y="230" width="10" height="10" />
  <rect class="y" x="210" y="230" width="10" height="10" />
  <rect class="y" x="220" y="230" width="10" height="10" />
  <rect class="y" x="230" y="230" width="10" height="10" />
  <rect class="g" x="240" y="230" width="10" height="10" />
  <rect class="g" x="250" y="230" width="10" height="10" />
  <rect class="b" x="260" y="230" width="10" height="10" />
  <rect class="b" x="30" y="240" width="10" height="10" />
  <rect class="d" x="40" y="240" width="10" height="10" />
  <rect class="d" x="50" y="240" width="10" height="10" />
  <rect class="d" x="60" y="240" width="10" height="10" />
  <rect class="d" x="70" y="240" width="10" height="10" />
  <rect class="d" x="80" y="240" width="10" height="10" />
  <rect class="d" x="90" y="240" width="10" height="10" />
  <rect class="d" x="100" y="240" width="10" height="10" />
  <rect class="d" x="110" y="240" width="10" height="10" />
  <rect class="b" x="120" y="240" width="10" height="10" />
  <rect class="b" x="130" y="240" width="10" height="10" />
  <rect class="b" x="140" y="240" width="10" height="10" />
  <rect class="w" x="150" y="240" width="10" height="10" />
  <rect class="w" x="160" y="240" width="10" height="10" />
  <rect class="b" x="170" y="240" width="10" height="10" />
  <rect class="b" x="180" y="240" width="10" height="10" />
  <rect class="b" x="190" y="240" width="10" height="10" />
  <rect class="g" x="200" y="240" width="10" height="10" />
  <rect class="g" x="210" y="240" width="10" height="10" />
  <rect class="g" x="220" y="240" width="10" height="10" />
  <rect class="b" x="230" y="240" width="10" height="10" />
  <rect class="b" x="240" y="240" width="10" height="10" />
  <rect class="b" x="250" y="240" width="10" height="10" />
  <rect class="b" x="30" y="250" width="10" height="10" />
  <rect class="d" x="40" y="250" width="10" height="10" />
  <rect class="d" x="50" y="250" width="10" height="10" />
  <rect class="d" x="60" y="250" width="10" height="10" />
  <rect class="d" x="70" y="250" width="10" height="10" />
  <rect class="d" x="80" y="250" width="10" height="10" />
  <rect class="d" x="90" y="250" width="10" height="10" />
  <rect class="d" x="100" y="250" width="10" height="10" />
  <rect class="d" x="110" y="250" width="10" height="10" />
  <rect class="b" x="120" y="250" width="10" height="10" />
  <rect class="b" x="130" y="250" width="10" height="10" />
  <rect class="b" x="140" y="250" width="10" height="10" />
  <rect class="w" x="150" y="250" width="10" height="10" />
  <rect class="w" x="160" y="250" width="10" height="10" />
  <rect class="w" x="170" y="250" width="10" height="10" />
  <rect class="w" x="180" y="250" width="10" height="10" />
  <rect class="w" x="190" y="250" width="10" height="10" />
  <rect class="b" x="200" y="250" width="10" height="10" />
  <rect class="b" x="210" y="250" width="10" height="10" />
  <rect class="b" x="220" y="250" width="10" height="10" />
  <rect class="b" x="40" y="260" width="10" height="10" />
  <rect class="d" x="50" y="260" width="10" height="10" />
  <rect class="d" x="60" y="260" width="10" height="10" />
  <rect class="d" x="70" y="260" width="10" height="10" />
  <rect class="d" x="80" y="260" width="10" height="10" />
  <rect class="d" x="90" y="260" width="10" height="10" />
  <rect class="d" x="100" y="260" width="10" height="10" />
  <rect class="d" x="110" y="260" width="10" height="10" />
  <rect class="b" x="120" y="260" width="10" height="10" />
  <rect class="b" x="130" y="260" width="10" height="10" />
  <rect class="b" x="140" y="260" width="10" height="10" />
  <rect class="w" x="150" y="260" width="10" height="10" />
  <rect class="w" x="160" y="260" width="10" height="10" />
  <rect class="w" x="170" y="260" width="10" height="10" />
  <rect class="w" x="180" y="260" width="10" height="10" />
  <rect class="w" x="190" y="260" width="10" height="10" />
  <rect class="b" x="200" y="260" width="10" height="10" />
  <rect class="b" x="50" y="270" width="10" height="10" />
  <rect class="b" x="60" y="270" width="10" height="10" />
  <rect class="b" x="70" y="270" width="10" height="10" />
  <rect class="b" x="80" y="270" width="10" height="10" />
  <rect class="b" x="90" y="270" width="10" height="10" />
  <rect class="b" x="100" y="270" width="10" height="10" />
  <rect class="b" x="110" y="270" width="10" height="10" />
  <rect class="b" x="120" y="270" width="10" height="10" />
  <rect class="b" x="140" y="270" width="10" height="10" />
  <rect class="w" x="150" y="270" width="10" height="10" />
  <rect class="w" x="160" y="270" width="10" height="10" />
  <rect class="w" x="170" y="270" width="10" height="10" />
  <rect class="w" x="180" y="270" width="10" height="10" />
  <rect class="b" x="190" y="270" width="10" height="10" />
  <rect class="b" x="140" y="280" width="10" height="10" />
  <rect class="w" x="150" y="280" width="10" height="10" />
  <rect class="w" x="160" y="280" width="10" height="10" />
  <rect class="w" x="170" y="280" width="10" height="10" />
  <rect class="w" x="180" y="280" width="10" height="10" />
  <rect class="b" x="190" y="280" width="10" height="10" />
  <rect class="b" x="140" y="290" width="10" height="10" />
  <rect class="w" x="150" y="290" width="10" height="10" />
  <rect class="w" x="160" y="290" width="10" height="10" />
  <rect class="w" x="170" y="290" width="10" height="10" />
  <rect class="w" x="180" y="290" width="10" height="10" />
  <rect class="b" x="190" y="290" width="10" height="10" />
  <rect class="b" x="150" y="300" width="10" height="10" />
  <rect class="b" x="160" y="300" width="10" height="10" />
  <rect class="b" x="170" y="300" width="10" height="10" />
  <rect class="b" x="180" y="300" width="10" height="10" />
</svg>